#N canvas 533 0 330 128 10;
#N canvas 108 146 1004 732 GUI 0;
#N canvas 987 87 910 689 metronome 0;
#X floatatom 541 377 5 0 0 0 - - -;
#X floatatom 541 431 5 0 0 0 - - -;
#X obj 541 399 expr (60/$f1) * 1000;
#X obj 514 458 metro;
#X obj 514 511 vline~;
#X obj 515 560 *~;
#X obj 530 534 osc~ 600;
#X msg 514 487 1 20 \, 0 20 20;
#X obj 541 329 loadbang;
#X obj 1212 224 adc~;
#X obj 1212 257 *~ 10;
#X obj 1211 349 threshold~ 5 100 3 100;
#X obj 1212 384 spigot;
#X obj 1212 462 timer;
#X obj 1212 416 t b b;
#X floatatom 1212 500 5 0 0 0 - - -;
#X obj 1167 363 bng 15 250 50 0 empty empty empty 17 7 0 10 -262144
-1 -1;
#X obj 824 513 -;
#X obj 882 417 t b b;
#X floatatom 824 548 5 0 0 0 - - -;
#X obj 286 182 inlet;
#X obj 1246 131 inlet;
#X obj 516 586 outlet~;
#X obj 824 593 outlet;
#X obj 541 186 inlet;
#X msg 541 353 120;
#X obj 320 599 spigot;
#X msg 285 693 1, f 5;
#X obj 677 707 outlet;
#X msg 320 630 0;
#N canvas 332 242 450 250 (subpatch) 0;
#X array TimeDiff 4 float 3;
#A 0 35135.4 57692.1 166.213 293.923;
#X coords 0 1 4 -1 200 140 1 0 0;
#X restore 721 -14 graph;
#X obj 755 644 tabwrite TimeDiff;
#X msg 1159 576 4;
#X floatatom 1113 691 5 0 0 0 - - -;
#N canvas 167 257 647 473 cup 0;
#X floatatom 292 284 5 0 0 0 - - -;
#X obj 292 176 inlet;
#X obj 292 258 int;
#X msg 307 232 0;
#X obj 517 218 inlet;
#X obj 292 333 outlet;
#X obj 292 308 %;
#X obj 363 259 + 1;
#X obj 395 200 inlet;
#X obj 494 298 outlet;
#X connect 0 0 6 0;
#X connect 0 0 9 0;
#X connect 1 0 2 0;
#X connect 2 0 0 0;
#X connect 2 0 7 0;
#X connect 3 0 2 1;
#X connect 4 0 3 0;
#X connect 6 0 5 0;
#X connect 7 0 2 1;
#X connect 8 0 6 1;
#X restore 1113 641 pd cup;
#N canvas 669 193 647 416 cup 0;
#X floatatom 292 284 5 0 0 0 - - -;
#X obj 292 176 inlet;
#X obj 292 258 int;
#X obj 517 218 inlet;
#X obj 292 333 outlet;
#X obj 292 308 %;
#X obj 363 259 + 1;
#X obj 395 200 inlet;
#X obj 494 298 outlet;
#X msg 307 232 1;
#X connect 0 0 5 0;
#X connect 0 0 8 0;
#X connect 1 0 2 0;
#X connect 2 0 0 0;
#X connect 2 0 6 0;
#X connect 3 0 9 0;
#X connect 5 0 4 0;
#X connect 6 0 2 1;
#X connect 7 0 5 1;
#X connect 9 0 2 1;
#X restore 333 517 pd cup;
#X msg 331 464 16;
#X obj 333 567 == 15;
#X floatatom 333 542 5 0 0 0 - - -;
#X obj 1113 751 moses 3;
#X obj 737 577 moses 0;
#X obj 737 597 * -1;
#X obj 923 799 t b;
#X obj 878 774 moses 20;
#N canvas 192 310 377 308 average 0;
#X obj 47 109 t b f;
#X obj 47 140 f;
#X obj 94 140 +;
#X obj 47 165 / 4;
#X obj 40 47 inlet;
#X obj 147 54 inlet;
#X obj 47 191 outlet;
#X connect 0 0 1 0;
#X connect 0 1 2 1;
#X connect 1 0 2 0;
#X connect 1 0 3 0;
#X connect 2 0 1 1;
#X connect 3 0 6 0;
#X connect 4 0 0 0;
#X connect 5 0 1 0;
#X restore 839 719 pd average;
#X floatatom 778 734 5 0 0 0 - - -;
#X obj 421 547 spigot;
#X obj 420 581 t b;
#X connect 0 0 2 0;
#X connect 1 0 3 1;
#X connect 1 0 17 0;
#X connect 2 0 1 0;
#X connect 3 0 7 0;
#X connect 3 0 46 0;
#X connect 4 0 5 0;
#X connect 5 0 22 0;
#X connect 6 0 5 1;
#X connect 7 0 4 0;
#X connect 8 0 25 0;
#X connect 8 0 36 0;
#X connect 8 0 32 0;
#X connect 9 0 10 0;
#X connect 10 0 11 0;
#X connect 11 0 12 0;
#X connect 11 0 16 0;
#X connect 12 0 14 0;
#X connect 13 0 15 0;
#X connect 14 0 13 0;
#X connect 14 1 13 1;
#X connect 15 0 17 1;
#X connect 16 0 18 0;
#X connect 16 0 34 0;
#X connect 17 0 19 0;
#X connect 18 0 1 0;
#X connect 18 1 15 0;
#X connect 19 0 23 0;
#X connect 19 0 40 0;
#X connect 20 0 3 0;
#X connect 20 0 27 0;
#X connect 20 0 35 2;
#X connect 21 0 12 1;
#X connect 21 0 46 1;
#X connect 24 0 0 0;
#X connect 25 0 0 0;
#X connect 26 0 29 0;
#X connect 27 0 28 0;
#X connect 27 0 46 1;
#X connect 29 0 28 0;
#X connect 29 0 46 1;
#X connect 29 0 38 0;
#X connect 32 0 34 1;
#X connect 33 0 31 1;
#X connect 33 0 39 0;
#X connect 34 0 33 0;
#X connect 35 0 38 0;
#X connect 36 0 35 1;
#X connect 37 0 26 1;
#X connect 37 0 26 0;
#X connect 38 0 37 0;
#X connect 39 1 44 1;
#X connect 40 0 41 0;
#X connect 40 1 31 0;
#X connect 40 1 44 0;
#X connect 41 0 31 0;
#X connect 41 0 44 0;
#X connect 42 0 27 0;
#X connect 43 1 42 0;
#X connect 44 0 45 0;
#X connect 45 0 43 0;
#X connect 46 0 35 0;
#X connect 46 0 47 0;
#X restore 36 293 pd metronome;
#X obj 108 158 tgl 35 0 empty empty empty 17 7 0 10 -261682 -1 -1 0
1;
#X obj 260 104 tgl 35 0 empty empty empty 17 7 0 10 -204786 -1 -1 1
1;
#X text 145 177 Start/Stop;
#X text 256 140 Feedback;
#X obj 263 158 hsl 131 35 -130 130 0 0 empty empty empty -2 -8 0 10
-262144 -1 -1 13000 1;
#X obj 107 116 nbx 5 14 10 300 0 0 empty empty empty 0 -8 0 10 -261682
-1 -1 120 256;
#X obj 107 49 loadbang;
#X text 165 117 bpm;
#X msg 107 67 120, f 4;
#X obj 215 32 loadbang;
#X msg 215 59 0;
#X obj 166 434 dac~;
#X obj 144 380 *~;
#X obj 205 381 *~;
#X obj 159 350 hip~ 3;
#X obj 219 350 hip~ 3;
#X obj 117 252 line~;
#X obj 376 391 pack 0 50;
#X msg 376 356 0;
#X obj 376 333 moses 0.011;
#X text 254 165 ||....|...|..|...|....|;
#X connect 0 0 15 0;
#X connect 0 0 16 0;
#X connect 0 1 20 0;
#X connect 0 2 5 0;
#X connect 1 0 0 0;
#X connect 2 0 0 2;
#X connect 6 0 0 1;
#X connect 7 0 9 0;
#X connect 9 0 6 0;
#X connect 10 0 11 0;
#X connect 11 0 5 0;
#X connect 11 0 2 0;
#X connect 13 0 12 0;
#X connect 14 0 12 1;
#X connect 15 0 13 1;
#X connect 16 0 14 1;
#X connect 17 0 14 0;
#X connect 17 0 13 0;
#X connect 18 0 17 0;
#X connect 19 0 18 0;
#X connect 20 0 19 0;
#X connect 20 1 18 0;
#X coords 0 -1 1 1 300 100 2 100 100;
#X restore 1 1 pd GUI;
